<mxfile host="app.diagrams.net" modified="2024-06-18T17:15:00.566Z" agent="Mozilla/5.0 (X11; Linux x86_64) AppleWebKit/537.36 (KHTML, like Gecko) Chrome/125.0.0.0 Safari/537.36 Edg/125.0.0.0" version="24.5.3" etag="Brq9vLvPwUH-MISC_TvO" type="device">
  <diagram id="LWXNjTrRbb4N-RTWdLq1" name="INFIX">
    <mxGraphModel dx="1301" dy="771" grid="1" gridSize="10" guides="1" tooltips="1" connect="1" arrows="1" fold="1" page="1" pageScale="1" pageWidth="827" pageHeight="1169" math="0" shadow="0">
      <root>
        <mxCell id="0" />
        <mxCell id="1" parent="0" />
        <mxCell id="o6rgsAHQ6M-vYuz5BRVc-1" value="&lt;h1 style=&quot;margin-top: 0px;&quot;&gt;INFIX MODE&lt;/h1&gt;&lt;p&gt;This is a state diagram of the INFIX mode simple calculator, involved with only 0~9 and + - * /, without any operator precedence&lt;/p&gt;" style="text;html=1;whiteSpace=wrap;overflow=hidden;rounded=0;" vertex="1" parent="1">
          <mxGeometry x="30" y="30" width="180" height="120" as="geometry" />
        </mxCell>
        <mxCell id="o6rgsAHQ6M-vYuz5BRVc-2" value="&lt;font style=&quot;font-size: 18px;&quot;&gt;start&lt;/font&gt;" style="shape=ellipse;html=1;dashed=0;whiteSpace=wrap;aspect=fixed;strokeWidth=5;perimeter=ellipsePerimeter;" vertex="1" parent="1">
          <mxGeometry x="260" y="450" width="60" height="60" as="geometry" />
        </mxCell>
        <mxCell id="o6rgsAHQ6M-vYuz5BRVc-4" value="&lt;font style=&quot;font-size: 18px;&quot;&gt;State A&lt;/font&gt;" style="html=1;align=center;verticalAlign=top;rounded=1;absoluteArcSize=1;arcSize=10;dashed=0;whiteSpace=wrap;" vertex="1" parent="1">
          <mxGeometry x="484" y="460" width="110" height="40" as="geometry" />
        </mxCell>
        <mxCell id="o6rgsAHQ6M-vYuz5BRVc-8" value="&lt;font style=&quot;font-size: 14px;&quot;&gt;&quot;+-*/&quot;/ &quot;null&quot;&lt;/font&gt;" style="text;html=1;align=center;verticalAlign=middle;whiteSpace=wrap;rounded=0;" vertex="1" parent="1">
          <mxGeometry x="240" y="390" width="100" height="30" as="geometry" />
        </mxCell>
        <mxCell id="o6rgsAHQ6M-vYuz5BRVc-9" value="" style="endArrow=none;html=1;rounded=0;exitX=1;exitY=0;exitDx=0;exitDy=0;entryX=1;entryY=0.5;entryDx=0;entryDy=0;edgeStyle=elbowEdgeStyle;" edge="1" parent="1" source="o6rgsAHQ6M-vYuz5BRVc-2" target="o6rgsAHQ6M-vYuz5BRVc-8">
          <mxGeometry width="50" height="50" relative="1" as="geometry">
            <mxPoint x="340" y="550" as="sourcePoint" />
            <mxPoint x="390" y="500" as="targetPoint" />
            <Array as="points">
              <mxPoint x="370" y="430" />
            </Array>
          </mxGeometry>
        </mxCell>
        <mxCell id="o6rgsAHQ6M-vYuz5BRVc-11" value="" style="endArrow=classic;html=1;rounded=0;exitX=0;exitY=0.5;exitDx=0;exitDy=0;entryX=0;entryY=0;entryDx=0;entryDy=0;edgeStyle=elbowEdgeStyle;" edge="1" parent="1" source="o6rgsAHQ6M-vYuz5BRVc-8" target="o6rgsAHQ6M-vYuz5BRVc-2">
          <mxGeometry width="50" height="50" relative="1" as="geometry">
            <mxPoint x="330" y="570" as="sourcePoint" />
            <mxPoint x="380" y="520" as="targetPoint" />
            <Array as="points">
              <mxPoint x="210" y="440" />
            </Array>
          </mxGeometry>
        </mxCell>
        <mxCell id="o6rgsAHQ6M-vYuz5BRVc-12" value="" style="endArrow=classic;html=1;rounded=0;exitX=1;exitY=0.5;exitDx=0;exitDy=0;entryX=0;entryY=0.5;entryDx=0;entryDy=0;" edge="1" parent="1" source="o6rgsAHQ6M-vYuz5BRVc-2" target="o6rgsAHQ6M-vYuz5BRVc-4">
          <mxGeometry width="50" height="50" relative="1" as="geometry">
            <mxPoint x="400" y="530" as="sourcePoint" />
            <mxPoint x="450" y="480" as="targetPoint" />
          </mxGeometry>
        </mxCell>
        <mxCell id="o6rgsAHQ6M-vYuz5BRVc-13" value="&lt;font style=&quot;font-size: 14px;&quot;&gt;&quot;0~9&quot;/&quot;0~9&quot;&lt;/font&gt;" style="edgeLabel;html=1;align=center;verticalAlign=middle;resizable=0;points=[];" vertex="1" connectable="0" parent="o6rgsAHQ6M-vYuz5BRVc-12">
          <mxGeometry x="-0.2286" y="1" relative="1" as="geometry">
            <mxPoint x="17" y="1" as="offset" />
          </mxGeometry>
        </mxCell>
        <mxCell id="o6rgsAHQ6M-vYuz5BRVc-15" value="&lt;font style=&quot;font-size: 14px;&quot;&gt;&quot;+-*/&quot; / &quot;A&quot;&lt;/font&gt;" style="text;html=1;align=center;verticalAlign=middle;whiteSpace=wrap;rounded=0;" vertex="1" parent="1">
          <mxGeometry x="726" y="240" width="100" height="30" as="geometry" />
        </mxCell>
        <mxCell id="o6rgsAHQ6M-vYuz5BRVc-20" style="edgeStyle=orthogonalEdgeStyle;rounded=0;orthogonalLoop=1;jettySize=auto;html=1;exitX=0.5;exitY=1;exitDx=0;exitDy=0;" edge="1" parent="1" source="o6rgsAHQ6M-vYuz5BRVc-15" target="o6rgsAHQ6M-vYuz5BRVc-15">
          <mxGeometry relative="1" as="geometry" />
        </mxCell>
        <mxCell id="o6rgsAHQ6M-vYuz5BRVc-24" value="" style="endArrow=none;html=1;rounded=0;exitX=1;exitY=0;exitDx=0;exitDy=0;entryX=1;entryY=0.5;entryDx=0;entryDy=0;edgeStyle=elbowEdgeStyle;" edge="1" parent="1" source="o6rgsAHQ6M-vYuz5BRVc-4" target="o6rgsAHQ6M-vYuz5BRVc-25">
          <mxGeometry width="50" height="50" relative="1" as="geometry">
            <mxPoint x="620" y="460" as="sourcePoint" />
            <mxPoint x="630" y="360" as="targetPoint" />
            <Array as="points">
              <mxPoint x="620" y="400" />
            </Array>
          </mxGeometry>
        </mxCell>
        <mxCell id="o6rgsAHQ6M-vYuz5BRVc-25" value="&lt;span style=&quot;font-size: 14px; text-wrap: nowrap; background-color: rgb(255, 255, 255);&quot;&gt;&quot;0~9&quot;/&quot;0~9&quot;&lt;/span&gt;" style="text;html=1;align=center;verticalAlign=middle;whiteSpace=wrap;rounded=0;" vertex="1" parent="1">
          <mxGeometry x="509" y="390" width="60" height="30" as="geometry" />
        </mxCell>
        <mxCell id="o6rgsAHQ6M-vYuz5BRVc-26" value="" style="endArrow=classic;html=1;rounded=0;exitX=0;exitY=0.5;exitDx=0;exitDy=0;entryX=0;entryY=0;entryDx=0;entryDy=0;edgeStyle=elbowEdgeStyle;" edge="1" parent="1" source="o6rgsAHQ6M-vYuz5BRVc-25" target="o6rgsAHQ6M-vYuz5BRVc-4">
          <mxGeometry width="50" height="50" relative="1" as="geometry">
            <mxPoint x="450" y="450" as="sourcePoint" />
            <mxPoint x="500" y="400" as="targetPoint" />
            <Array as="points">
              <mxPoint x="450" y="410" />
            </Array>
          </mxGeometry>
        </mxCell>
        <mxCell id="o6rgsAHQ6M-vYuz5BRVc-29" value="&lt;font style=&quot;font-size: 14px;&quot;&gt;Exclude the nonsense input&amp;nbsp;&lt;/font&gt;" style="text;html=1;align=center;verticalAlign=middle;whiteSpace=wrap;rounded=0;" vertex="1" parent="1">
          <mxGeometry x="225" y="340" width="130" height="40" as="geometry" />
        </mxCell>
        <mxCell id="o6rgsAHQ6M-vYuz5BRVc-30" value="&lt;font style=&quot;font-size: 14px;&quot;&gt;Use a temp variable A to store the operand accordingly&lt;/font&gt;" style="text;html=1;align=center;verticalAlign=middle;whiteSpace=wrap;rounded=0;" vertex="1" parent="1">
          <mxGeometry x="470" y="340" width="130" height="40" as="geometry" />
        </mxCell>
        <mxCell id="o6rgsAHQ6M-vYuz5BRVc-38" value="" style="endArrow=none;html=1;rounded=0;exitX=1;exitY=0.5;exitDx=0;exitDy=0;entryX=0;entryY=0.5;entryDx=0;entryDy=0;" edge="1" parent="1" source="o6rgsAHQ6M-vYuz5BRVc-4" target="o6rgsAHQ6M-vYuz5BRVc-72">
          <mxGeometry width="50" height="50" relative="1" as="geometry">
            <mxPoint x="640" y="490" as="sourcePoint" />
            <mxPoint x="682" y="480" as="targetPoint" />
          </mxGeometry>
        </mxCell>
        <mxCell id="o6rgsAHQ6M-vYuz5BRVc-39" value="" style="endArrow=classic;html=1;rounded=0;entryX=0;entryY=0.5;entryDx=0;entryDy=0;exitX=1;exitY=0.5;exitDx=0;exitDy=0;" edge="1" parent="1" source="o6rgsAHQ6M-vYuz5BRVc-72" target="o6rgsAHQ6M-vYuz5BRVc-71">
          <mxGeometry width="50" height="50" relative="1" as="geometry">
            <mxPoint x="810" y="480" as="sourcePoint" />
            <mxPoint x="890" y="480" as="targetPoint" />
          </mxGeometry>
        </mxCell>
        <mxCell id="o6rgsAHQ6M-vYuz5BRVc-75" style="edgeStyle=orthogonalEdgeStyle;rounded=0;orthogonalLoop=1;jettySize=auto;html=1;exitX=0;exitY=0.5;exitDx=0;exitDy=0;entryX=0;entryY=0;entryDx=0;entryDy=0;" edge="1" parent="1" source="o6rgsAHQ6M-vYuz5BRVc-73" target="o6rgsAHQ6M-vYuz5BRVc-71">
          <mxGeometry relative="1" as="geometry">
            <mxPoint x="470" y="420" as="targetPoint" />
            <Array as="points">
              <mxPoint x="840" y="405" />
              <mxPoint x="840" y="460" />
            </Array>
          </mxGeometry>
        </mxCell>
        <mxCell id="o6rgsAHQ6M-vYuz5BRVc-40" value="&lt;font style=&quot;font-size: 14px;&quot;&gt;clear the display with a null and keep this operator&lt;/font&gt;" style="text;html=1;align=center;verticalAlign=middle;whiteSpace=wrap;rounded=0;" vertex="1" parent="1">
          <mxGeometry x="664" y="410" width="116" height="40" as="geometry" />
        </mxCell>
        <mxCell id="o6rgsAHQ6M-vYuz5BRVc-41" value="" style="endArrow=none;html=1;rounded=0;" edge="1" parent="1">
          <mxGeometry width="50" height="50" relative="1" as="geometry">
            <mxPoint x="81.33" y="830" as="sourcePoint" />
            <mxPoint x="1402.6633333333332" y="830" as="targetPoint" />
          </mxGeometry>
        </mxCell>
        <mxCell id="o6rgsAHQ6M-vYuz5BRVc-42" value="&lt;font style=&quot;font-size: 18px;&quot;&gt;Test Cases&lt;/font&gt;" style="text;html=1;align=center;verticalAlign=middle;whiteSpace=wrap;rounded=0;" vertex="1" parent="1">
          <mxGeometry x="81.33" y="860" width="120" height="30" as="geometry" />
        </mxCell>
        <mxCell id="o6rgsAHQ6M-vYuz5BRVc-45" value="" style="edgeStyle=orthogonalEdgeStyle;rounded=0;orthogonalLoop=1;jettySize=auto;html=1;" edge="1" parent="1" source="o6rgsAHQ6M-vYuz5BRVc-43" target="o6rgsAHQ6M-vYuz5BRVc-44">
          <mxGeometry relative="1" as="geometry" />
        </mxCell>
        <mxCell id="o6rgsAHQ6M-vYuz5BRVc-43" value="&lt;font style=&quot;font-size: 14px;&quot;&gt;&quot;1&quot; &quot;=&quot;&lt;/font&gt;" style="text;html=1;align=center;verticalAlign=middle;whiteSpace=wrap;rounded=0;" vertex="1" parent="1">
          <mxGeometry x="101.33" y="940" width="120" height="30" as="geometry" />
        </mxCell>
        <mxCell id="o6rgsAHQ6M-vYuz5BRVc-44" value="&lt;span style=&quot;font-size: 14px;&quot;&gt;&quot;1&quot; &quot;1&quot;&lt;/span&gt;" style="text;html=1;align=center;verticalAlign=middle;whiteSpace=wrap;rounded=0;" vertex="1" parent="1">
          <mxGeometry x="310.33" y="940" width="120" height="30" as="geometry" />
        </mxCell>
        <mxCell id="o6rgsAHQ6M-vYuz5BRVc-46" value="" style="edgeStyle=orthogonalEdgeStyle;rounded=0;orthogonalLoop=1;jettySize=auto;html=1;" edge="1" parent="1" source="o6rgsAHQ6M-vYuz5BRVc-47" target="o6rgsAHQ6M-vYuz5BRVc-48">
          <mxGeometry relative="1" as="geometry" />
        </mxCell>
        <mxCell id="o6rgsAHQ6M-vYuz5BRVc-47" value="&lt;font style=&quot;font-size: 14px;&quot;&gt;&quot;1&quot; &quot;+&quot; &quot;2&quot;&lt;/font&gt;" style="text;html=1;align=center;verticalAlign=middle;whiteSpace=wrap;rounded=0;" vertex="1" parent="1">
          <mxGeometry x="102.33" y="1010" width="120" height="30" as="geometry" />
        </mxCell>
        <mxCell id="o6rgsAHQ6M-vYuz5BRVc-48" value="&lt;span style=&quot;font-size: 14px;&quot;&gt;&quot;1&quot; &quot;2&quot;&lt;/span&gt;" style="text;html=1;align=center;verticalAlign=middle;whiteSpace=wrap;rounded=0;" vertex="1" parent="1">
          <mxGeometry x="311.33" y="1010" width="120" height="30" as="geometry" />
        </mxCell>
        <mxCell id="o6rgsAHQ6M-vYuz5BRVc-49" value="" style="edgeStyle=orthogonalEdgeStyle;rounded=0;orthogonalLoop=1;jettySize=auto;html=1;" edge="1" parent="1" source="o6rgsAHQ6M-vYuz5BRVc-50" target="o6rgsAHQ6M-vYuz5BRVc-51">
          <mxGeometry relative="1" as="geometry" />
        </mxCell>
        <mxCell id="o6rgsAHQ6M-vYuz5BRVc-50" value="&lt;font style=&quot;font-size: 14px;&quot;&gt;&quot;1&quot; &quot;+&quot; &quot;2&quot; &quot;=&quot;&lt;/font&gt;" style="text;html=1;align=center;verticalAlign=middle;whiteSpace=wrap;rounded=0;" vertex="1" parent="1">
          <mxGeometry x="101.33" y="1080" width="120" height="30" as="geometry" />
        </mxCell>
        <mxCell id="o6rgsAHQ6M-vYuz5BRVc-51" value="&lt;span style=&quot;font-size: 14px;&quot;&gt;&quot;1&quot; &quot;2&quot; &quot;3&quot;&lt;/span&gt;" style="text;html=1;align=center;verticalAlign=middle;whiteSpace=wrap;rounded=0;" vertex="1" parent="1">
          <mxGeometry x="310.33" y="1080" width="120" height="30" as="geometry" />
        </mxCell>
        <mxCell id="o6rgsAHQ6M-vYuz5BRVc-52" value="" style="edgeStyle=orthogonalEdgeStyle;rounded=0;orthogonalLoop=1;jettySize=auto;html=1;" edge="1" parent="1" source="o6rgsAHQ6M-vYuz5BRVc-53" target="o6rgsAHQ6M-vYuz5BRVc-54">
          <mxGeometry relative="1" as="geometry" />
        </mxCell>
        <mxCell id="o6rgsAHQ6M-vYuz5BRVc-53" value="&lt;font style=&quot;font-size: 14px;&quot;&gt;&quot;1&quot; &quot;+&quot; &quot;2&quot; &quot;*&quot; &quot;3&quot;&lt;/font&gt;" style="text;html=1;align=center;verticalAlign=middle;whiteSpace=wrap;rounded=0;" vertex="1" parent="1">
          <mxGeometry x="101.33" y="1150" width="120" height="30" as="geometry" />
        </mxCell>
        <mxCell id="o6rgsAHQ6M-vYuz5BRVc-54" value="&lt;span style=&quot;font-size: 14px;&quot;&gt;&quot;1&quot; &quot;2&quot; &quot;3&quot; &quot;9&quot;&lt;/span&gt;" style="text;html=1;align=center;verticalAlign=middle;whiteSpace=wrap;rounded=0;" vertex="1" parent="1">
          <mxGeometry x="310.33" y="1150" width="120" height="30" as="geometry" />
        </mxCell>
        <mxCell id="o6rgsAHQ6M-vYuz5BRVc-55" value="" style="edgeStyle=orthogonalEdgeStyle;rounded=0;orthogonalLoop=1;jettySize=auto;html=1;" edge="1" parent="1" source="o6rgsAHQ6M-vYuz5BRVc-56" target="o6rgsAHQ6M-vYuz5BRVc-57">
          <mxGeometry relative="1" as="geometry" />
        </mxCell>
        <mxCell id="o6rgsAHQ6M-vYuz5BRVc-56" value="&lt;font style=&quot;font-size: 14px;&quot;&gt;&quot;1&quot; &quot;+&quot; &quot;2&quot; &quot;/&quot; &quot;3&quot;&lt;/font&gt;" style="text;html=1;align=center;verticalAlign=middle;whiteSpace=wrap;rounded=0;" vertex="1" parent="1">
          <mxGeometry x="101.33" y="1210" width="120" height="30" as="geometry" />
        </mxCell>
        <mxCell id="o6rgsAHQ6M-vYuz5BRVc-57" value="&lt;span style=&quot;font-size: 14px;&quot;&gt;&quot;1&quot; &quot;2&quot; &quot;3&quot; &quot;1&quot;&lt;/span&gt;" style="text;html=1;align=center;verticalAlign=middle;whiteSpace=wrap;rounded=0;" vertex="1" parent="1">
          <mxGeometry x="310.33" y="1210" width="120" height="30" as="geometry" />
        </mxCell>
        <mxCell id="o6rgsAHQ6M-vYuz5BRVc-58" value="" style="edgeStyle=orthogonalEdgeStyle;rounded=0;orthogonalLoop=1;jettySize=auto;html=1;" edge="1" parent="1" source="o6rgsAHQ6M-vYuz5BRVc-59" target="o6rgsAHQ6M-vYuz5BRVc-60">
          <mxGeometry relative="1" as="geometry" />
        </mxCell>
        <mxCell id="o6rgsAHQ6M-vYuz5BRVc-59" value="&lt;font style=&quot;font-size: 14px;&quot;&gt;&quot;2&quot; &quot;-&quot; &quot;1&quot;&lt;/font&gt;" style="text;html=1;align=center;verticalAlign=middle;whiteSpace=wrap;rounded=0;" vertex="1" parent="1">
          <mxGeometry x="525.33" y="940" width="120" height="30" as="geometry" />
        </mxCell>
        <mxCell id="o6rgsAHQ6M-vYuz5BRVc-60" value="&lt;span style=&quot;font-size: 14px;&quot;&gt;&quot;2&quot; &quot;1&quot;&lt;/span&gt;" style="text;html=1;align=center;verticalAlign=middle;whiteSpace=wrap;rounded=0;" vertex="1" parent="1">
          <mxGeometry x="734.33" y="940" width="120" height="30" as="geometry" />
        </mxCell>
        <mxCell id="o6rgsAHQ6M-vYuz5BRVc-61" value="" style="edgeStyle=orthogonalEdgeStyle;rounded=0;orthogonalLoop=1;jettySize=auto;html=1;" edge="1" parent="1" source="o6rgsAHQ6M-vYuz5BRVc-62" target="o6rgsAHQ6M-vYuz5BRVc-63">
          <mxGeometry relative="1" as="geometry" />
        </mxCell>
        <mxCell id="o6rgsAHQ6M-vYuz5BRVc-62" value="&lt;font style=&quot;font-size: 14px;&quot;&gt;&quot;2&quot; &quot;-&quot; &quot;1&quot; &quot;=&quot;&lt;/font&gt;" style="text;html=1;align=center;verticalAlign=middle;whiteSpace=wrap;rounded=0;" vertex="1" parent="1">
          <mxGeometry x="531.33" y="1010" width="120" height="30" as="geometry" />
        </mxCell>
        <mxCell id="o6rgsAHQ6M-vYuz5BRVc-63" value="&lt;span style=&quot;font-size: 14px;&quot;&gt;&quot;2&quot; &quot;1&quot; &quot;1&quot;&lt;/span&gt;" style="text;html=1;align=center;verticalAlign=middle;whiteSpace=wrap;rounded=0;" vertex="1" parent="1">
          <mxGeometry x="740.33" y="1010" width="120" height="30" as="geometry" />
        </mxCell>
        <mxCell id="o6rgsAHQ6M-vYuz5BRVc-64" value="" style="edgeStyle=orthogonalEdgeStyle;rounded=0;orthogonalLoop=1;jettySize=auto;html=1;" edge="1" parent="1" source="o6rgsAHQ6M-vYuz5BRVc-65" target="o6rgsAHQ6M-vYuz5BRVc-66">
          <mxGeometry relative="1" as="geometry" />
        </mxCell>
        <mxCell id="o6rgsAHQ6M-vYuz5BRVc-65" value="&lt;font style=&quot;font-size: 14px;&quot;&gt;&quot;2&quot; &quot;-&quot; &quot;1&quot; &quot;=&quot; &quot;+&quot; &quot;2&quot; &quot;=&quot;&lt;/font&gt;" style="text;html=1;align=center;verticalAlign=middle;whiteSpace=wrap;rounded=0;" vertex="1" parent="1">
          <mxGeometry x="461.33" y="1080" width="190" height="30" as="geometry" />
        </mxCell>
        <mxCell id="o6rgsAHQ6M-vYuz5BRVc-66" value="&lt;span style=&quot;font-size: 14px;&quot;&gt;&quot;2&quot; &quot;1&quot; &quot;1&quot; &quot;2&quot; &quot;3&quot;&lt;/span&gt;" style="text;html=1;align=center;verticalAlign=middle;whiteSpace=wrap;rounded=0;" vertex="1" parent="1">
          <mxGeometry x="740.33" y="1080" width="141" height="30" as="geometry" />
        </mxCell>
        <mxCell id="o6rgsAHQ6M-vYuz5BRVc-67" value="" style="endArrow=none;dashed=1;html=1;rounded=0;" edge="1" parent="1">
          <mxGeometry width="50" height="50" relative="1" as="geometry">
            <mxPoint x="701.33" y="1250" as="sourcePoint" />
            <mxPoint x="701.33" y="1150" as="targetPoint" />
          </mxGeometry>
        </mxCell>
        <mxCell id="o6rgsAHQ6M-vYuz5BRVc-71" value="&lt;font style=&quot;font-size: 18px;&quot;&gt;State B&lt;/font&gt;" style="html=1;align=center;verticalAlign=top;rounded=1;absoluteArcSize=1;arcSize=10;dashed=0;whiteSpace=wrap;" vertex="1" parent="1">
          <mxGeometry x="869" y="460" width="110" height="40" as="geometry" />
        </mxCell>
        <mxCell id="o6rgsAHQ6M-vYuz5BRVc-72" value="&lt;font style=&quot;font-size: 14px;&quot;&gt;&quot;+-*/&quot; / &quot;null&quot;&lt;/font&gt;" style="text;html=1;align=center;verticalAlign=middle;whiteSpace=wrap;rounded=0;" vertex="1" parent="1">
          <mxGeometry x="672" y="465" width="100" height="30" as="geometry" />
        </mxCell>
        <mxCell id="o6rgsAHQ6M-vYuz5BRVc-73" value="&lt;span style=&quot;font-size: 14px; text-wrap: nowrap; background-color: rgb(255, 255, 255);&quot;&gt;&quot;0~9&quot;/&quot;0~9&quot;&lt;/span&gt;" style="text;html=1;align=center;verticalAlign=middle;whiteSpace=wrap;rounded=0;" vertex="1" parent="1">
          <mxGeometry x="889" y="390" width="60" height="30" as="geometry" />
        </mxCell>
        <mxCell id="o6rgsAHQ6M-vYuz5BRVc-74" value="" style="endArrow=none;html=1;rounded=0;exitX=1;exitY=0;exitDx=0;exitDy=0;entryX=1;entryY=0.5;entryDx=0;entryDy=0;edgeStyle=elbowEdgeStyle;" edge="1" parent="1" source="o6rgsAHQ6M-vYuz5BRVc-71" target="o6rgsAHQ6M-vYuz5BRVc-73">
          <mxGeometry width="50" height="50" relative="1" as="geometry">
            <mxPoint x="604" y="470" as="sourcePoint" />
            <mxPoint x="579" y="415" as="targetPoint" />
            <Array as="points">
              <mxPoint x="1000" y="440" />
            </Array>
          </mxGeometry>
        </mxCell>
        <mxCell id="o6rgsAHQ6M-vYuz5BRVc-76" value="&lt;font style=&quot;font-size: 14px;&quot;&gt;Use a temp variable B to store the operand accordingly&lt;/font&gt;" style="text;html=1;align=center;verticalAlign=middle;whiteSpace=wrap;rounded=0;" vertex="1" parent="1">
          <mxGeometry x="853" y="340" width="130" height="40" as="geometry" />
        </mxCell>
        <mxCell id="o6rgsAHQ6M-vYuz5BRVc-77" value="" style="endArrow=none;html=1;rounded=0;exitX=1;exitY=0.25;exitDx=0;exitDy=0;entryX=1;entryY=0.5;entryDx=0;entryDy=0;edgeStyle=elbowEdgeStyle;" edge="1" parent="1" source="o6rgsAHQ6M-vYuz5BRVc-71" target="o6rgsAHQ6M-vYuz5BRVc-15">
          <mxGeometry width="50" height="50" relative="1" as="geometry">
            <mxPoint x="1007" y="520" as="sourcePoint" />
            <mxPoint x="1085" y="520" as="targetPoint" />
            <Array as="points">
              <mxPoint x="1120" y="400" />
            </Array>
          </mxGeometry>
        </mxCell>
        <mxCell id="o6rgsAHQ6M-vYuz5BRVc-78" value="" style="endArrow=classic;html=1;rounded=0;exitX=0;exitY=0.5;exitDx=0;exitDy=0;edgeStyle=elbowEdgeStyle;entryX=0;entryY=0.25;entryDx=0;entryDy=0;" edge="1" parent="1" source="o6rgsAHQ6M-vYuz5BRVc-15" target="o6rgsAHQ6M-vYuz5BRVc-4">
          <mxGeometry width="50" height="50" relative="1" as="geometry">
            <mxPoint x="1150" y="490" as="sourcePoint" />
            <mxPoint x="1260" y="320" as="targetPoint" />
            <Array as="points">
              <mxPoint x="420" y="330" />
            </Array>
          </mxGeometry>
        </mxCell>
        <mxCell id="o6rgsAHQ6M-vYuz5BRVc-80" value="&lt;font style=&quot;font-size: 14px;&quot;&gt;Calculate the result of A operator B to A and display A&lt;/font&gt;" style="text;html=1;align=center;verticalAlign=middle;whiteSpace=wrap;rounded=0;" vertex="1" parent="1">
          <mxGeometry x="674" y="180" width="194" height="50" as="geometry" />
        </mxCell>
        <mxCell id="o6rgsAHQ6M-vYuz5BRVc-81" value="&lt;font style=&quot;font-size: 18px;&quot;&gt;State C&lt;/font&gt;" style="html=1;align=center;verticalAlign=top;rounded=1;absoluteArcSize=1;arcSize=10;dashed=0;whiteSpace=wrap;" vertex="1" parent="1">
          <mxGeometry x="716" y="587.5" width="110" height="40" as="geometry" />
        </mxCell>
        <mxCell id="o6rgsAHQ6M-vYuz5BRVc-82" value="&lt;font style=&quot;font-size: 14px;&quot;&gt;&quot;=&quot; / &quot;A&quot;&lt;/font&gt;" style="text;html=1;align=center;verticalAlign=middle;whiteSpace=wrap;rounded=0;" vertex="1" parent="1">
          <mxGeometry x="620" y="595" width="60" height="25" as="geometry" />
        </mxCell>
        <mxCell id="o6rgsAHQ6M-vYuz5BRVc-83" value="" style="endArrow=none;html=1;rounded=0;entryX=1;entryY=1;entryDx=0;entryDy=0;exitX=0;exitY=0.5;exitDx=0;exitDy=0;edgeStyle=elbowEdgeStyle;" edge="1" parent="1" source="o6rgsAHQ6M-vYuz5BRVc-82" target="o6rgsAHQ6M-vYuz5BRVc-4">
          <mxGeometry width="50" height="50" relative="1" as="geometry">
            <mxPoint x="630" y="620" as="sourcePoint" />
            <mxPoint x="680" y="570" as="targetPoint" />
            <Array as="points">
              <mxPoint x="594" y="560" />
            </Array>
          </mxGeometry>
        </mxCell>
        <mxCell id="o6rgsAHQ6M-vYuz5BRVc-84" value="" style="endArrow=classic;html=1;rounded=0;exitX=1;exitY=0.5;exitDx=0;exitDy=0;entryX=0;entryY=0.5;entryDx=0;entryDy=0;" edge="1" parent="1" source="o6rgsAHQ6M-vYuz5BRVc-82" target="o6rgsAHQ6M-vYuz5BRVc-81">
          <mxGeometry width="50" height="50" relative="1" as="geometry">
            <mxPoint x="810" y="660" as="sourcePoint" />
            <mxPoint x="860" y="610" as="targetPoint" />
          </mxGeometry>
        </mxCell>
        <mxCell id="o6rgsAHQ6M-vYuz5BRVc-85" value="&lt;font style=&quot;font-size: 14px;&quot;&gt;Display the Value of A&lt;/font&gt;" style="text;html=1;align=center;verticalAlign=middle;whiteSpace=wrap;rounded=0;" vertex="1" parent="1">
          <mxGeometry x="600" y="547.5" width="116" height="40" as="geometry" />
        </mxCell>
        <mxCell id="o6rgsAHQ6M-vYuz5BRVc-87" value="&lt;font style=&quot;font-size: 14px;&quot;&gt;&quot;+-*/&quot; / &quot;null&quot;&lt;/font&gt;" style="text;html=1;align=center;verticalAlign=middle;whiteSpace=wrap;rounded=0;" vertex="1" parent="1">
          <mxGeometry x="874" y="592.5" width="100" height="30" as="geometry" />
        </mxCell>
        <mxCell id="o6rgsAHQ6M-vYuz5BRVc-88" value="" style="endArrow=none;html=1;rounded=0;exitX=1;exitY=0.5;exitDx=0;exitDy=0;entryX=0;entryY=0.5;entryDx=0;entryDy=0;" edge="1" parent="1" source="o6rgsAHQ6M-vYuz5BRVc-81" target="o6rgsAHQ6M-vYuz5BRVc-87">
          <mxGeometry width="50" height="50" relative="1" as="geometry">
            <mxPoint x="895" y="580" as="sourcePoint" />
            <mxPoint x="973" y="580" as="targetPoint" />
          </mxGeometry>
        </mxCell>
        <mxCell id="o6rgsAHQ6M-vYuz5BRVc-89" value="" style="endArrow=classic;html=1;rounded=0;exitX=0.5;exitY=0;exitDx=0;exitDy=0;entryX=0.5;entryY=1;entryDx=0;entryDy=0;" edge="1" parent="1" source="o6rgsAHQ6M-vYuz5BRVc-87" target="o6rgsAHQ6M-vYuz5BRVc-71">
          <mxGeometry width="50" height="50" relative="1" as="geometry">
            <mxPoint x="690" y="618" as="sourcePoint" />
            <mxPoint x="726" y="618" as="targetPoint" />
          </mxGeometry>
        </mxCell>
        <mxCell id="o6rgsAHQ6M-vYuz5BRVc-90" value="" style="endArrow=none;html=1;rounded=0;entryX=0.5;entryY=1;entryDx=0;entryDy=0;exitX=0.5;exitY=0;exitDx=0;exitDy=0;" edge="1" parent="1" source="o6rgsAHQ6M-vYuz5BRVc-91" target="o6rgsAHQ6M-vYuz5BRVc-81">
          <mxGeometry width="50" height="50" relative="1" as="geometry">
            <mxPoint x="770" y="650" as="sourcePoint" />
            <mxPoint x="870" y="640" as="targetPoint" />
          </mxGeometry>
        </mxCell>
        <mxCell id="o6rgsAHQ6M-vYuz5BRVc-91" value="&lt;span style=&quot;font-size: 14px; text-wrap: nowrap; background-color: rgb(255, 255, 255);&quot;&gt;&quot;0~9&quot;/&quot;0~9&quot;&lt;/span&gt;" style="text;html=1;align=center;verticalAlign=middle;whiteSpace=wrap;rounded=0;" vertex="1" parent="1">
          <mxGeometry x="741" y="660" width="60" height="30" as="geometry" />
        </mxCell>
        <mxCell id="o6rgsAHQ6M-vYuz5BRVc-92" value="" style="endArrow=classic;html=1;rounded=0;exitX=0;exitY=0.5;exitDx=0;exitDy=0;entryX=0.5;entryY=1;entryDx=0;entryDy=0;edgeStyle=elbowEdgeStyle;" edge="1" parent="1" source="o6rgsAHQ6M-vYuz5BRVc-91" target="o6rgsAHQ6M-vYuz5BRVc-4">
          <mxGeometry width="50" height="50" relative="1" as="geometry">
            <mxPoint x="534.6700000000001" y="633" as="sourcePoint" />
            <mxPoint x="534.6700000000001" y="540" as="targetPoint" />
            <Array as="points">
              <mxPoint x="539" y="600" />
            </Array>
          </mxGeometry>
        </mxCell>
        <mxCell id="o6rgsAHQ6M-vYuz5BRVc-94" value="&lt;font style=&quot;font-size: 14px;&quot;&gt;&quot;=&quot; / &quot;A&quot;&lt;/font&gt;" style="text;html=1;align=center;verticalAlign=middle;whiteSpace=wrap;rounded=0;" vertex="1" parent="1">
          <mxGeometry x="740" y="770" width="60" height="25" as="geometry" />
        </mxCell>
        <mxCell id="o6rgsAHQ6M-vYuz5BRVc-95" value="" style="endArrow=none;html=1;rounded=0;exitX=1;exitY=0.75;exitDx=0;exitDy=0;entryX=1;entryY=0.5;entryDx=0;entryDy=0;edgeStyle=elbowEdgeStyle;" edge="1" parent="1" source="o6rgsAHQ6M-vYuz5BRVc-71" target="o6rgsAHQ6M-vYuz5BRVc-94">
          <mxGeometry width="50" height="50" relative="1" as="geometry">
            <mxPoint x="989" y="480" as="sourcePoint" />
            <mxPoint x="836" y="265" as="targetPoint" />
            <Array as="points">
              <mxPoint x="1120" y="640" />
            </Array>
          </mxGeometry>
        </mxCell>
        <mxCell id="o6rgsAHQ6M-vYuz5BRVc-96" value="" style="endArrow=classic;html=1;rounded=0;exitX=0;exitY=0.5;exitDx=0;exitDy=0;edgeStyle=elbowEdgeStyle;entryX=0;entryY=0.75;entryDx=0;entryDy=0;" edge="1" parent="1" source="o6rgsAHQ6M-vYuz5BRVc-94" target="o6rgsAHQ6M-vYuz5BRVc-4">
          <mxGeometry width="50" height="50" relative="1" as="geometry">
            <mxPoint x="736" y="265" as="sourcePoint" />
            <mxPoint x="494" y="480" as="targetPoint" />
            <Array as="points">
              <mxPoint x="419" y="620" />
            </Array>
          </mxGeometry>
        </mxCell>
        <mxCell id="o6rgsAHQ6M-vYuz5BRVc-97" value="&lt;font style=&quot;font-size: 14px;&quot;&gt;Calculate the result of A operator B to A and display A&lt;/font&gt;" style="text;html=1;align=center;verticalAlign=middle;whiteSpace=wrap;rounded=0;" vertex="1" parent="1">
          <mxGeometry x="671" y="720" width="200" height="30" as="geometry" />
        </mxCell>
      </root>
    </mxGraphModel>
  </diagram>
</mxfile>
